<svg xmlns="http://www.w3.org/2000/svg" width="28" height="28" viewBox="0 0 28 28">
    <defs>
        <clipPath id="rbfd5ru9qa">
            <path data-name="사각형 48" style="fill:none" d="M0 0h28v28H0z"/>
        </clipPath>
    </defs>
    <g data-name="그룹 65" style="clip-path:url(#rbfd5ru9qa)">
        <path data-name="패스 142" d="M28 14A14 14 0 1 1 14 0a14 14 0 0 1 14 14" style="fill:#4aa935"/>
        <path data-name="패스 143" d="M32.044 29.4a.657.657 0 1 0 .657.657.657.657 0 0 0-.657-.657" transform="translate(-17.216 -16.127)" style="fill:#fff"/>
        <path data-name="패스 144" d="M40.074 29.511a.608.608 0 1 0 .608.608.609.609 0 0 0-.608-.608" transform="translate(-21.647 -16.187)" style="fill:#fff"/>
        <path data-name="패스 145" d="M26.263 17.984H15.981a2.743 2.743 0 0 0-2.743 2.744v5.326a2.744 2.744 0 0 0 2.743 2.746h3.866l1.275 2.516 1.445-2.516h3.7a2.745 2.745 0 0 0 2.745-2.744v-5.328a2.744 2.744 0 0 0-2.745-2.744m-9.623 7.286a1.5 1.5 0 0 1-.766-.209v.189h-1.029v-4.175h1.029v1.38a1.512 1.512 0 1 1 .766 2.815m3.206-2.783v2.783h-.987v-2.783c0-.6-.383-.6-.383-.6v-.807a1.236 1.236 0 0 1 1.32 1.004 1.759 1.759 0 0 1 .054.4zm2.239 2.907a1.6 1.6 0 1 1 1.6-1.6 1.6 1.6 0 0 1-1.6 1.6m3.449 1.314V25.9s.9.1.9-.4v-.43a1.478 1.478 0 1 1 0-2.549v-.129h.956V25.5s.209 1.209-1.852 1.209" transform="translate(-7.261 -9.864)" style="fill:#fff"/>
        <path data-name="패스 146" d="M19.789 29.409a.615.615 0 1 0 .614.615.615.615 0 0 0-.614-.615" transform="translate(-10.517 -16.131)" style="fill:#fff"/>
    </g>
</svg>
