<svg xmlns="http://www.w3.org/2000/svg" width="28" height="28" viewBox="0 0 28 28">
    <defs>
        <clipPath id="h3d6ifetea">
            <path data-name="사각형 47" style="fill:none" d="M0 0h28v28H0z"/>
        </clipPath>
    </defs>
    <g data-name="그룹 63" style="clip-path:url(#h3d6ifetea)">
        <path data-name="패스 140" d="M28 14A14 14 0 1 1 14 0a14 14 0 0 1 14 14" style="fill:#1e488a"/>
        <path data-name="패스 141" d="M29.758 13.744V16.2h-1.337a.821.821 0 0 0-.777.326 1.518 1.518 0 0 0-.126.741v1.12h2.277l-.271 2.476h-2.006V28h-2.946v-7.136h-1.446v-2.476h1.446v-1.481c0-1.518.524-2.494 1.554-2.909a3.611 3.611 0 0 1 1.392-.253z" transform="translate(-12.685 -7.539)" style="fill:#f5f6f6"/>
    </g>
</svg>
